<svg xmlns="http://www.w3.org/2000/svg" xmlns:xlink="http://www.w3.org/1999/xlink" width="500" zoomAndPan="magnify" viewBox="30 62 320 240" height="500" preserveAspectRatio="xMidYMid meet" version="1.0"><defs><g/><clipPath id="131bad4137"><rect x="0" width="134" y="0" height="226"/></clipPath><clipPath id="e1860c2ef8"><rect x="0" width="145" y="0" height="225"/></clipPath><clipPath id="caf6b5e4c9"><path d="M 37.5 169.1875 L 348.957031 169.1875 L 348.957031 205.324219 L 37.5 205.324219 Z M 37.5 169.1875 " clip-rule="nonzero"/></clipPath><clipPath id="2d5210abe0"><path d="M 0.5 0.1875 L 311.957031 0.1875 L 311.957031 36.324219 L 0.5 36.324219 Z M 0.5 0.1875 " clip-rule="nonzero"/></clipPath><clipPath id="14d0194570"><rect x="0" width="312" y="0" height="37"/></clipPath><clipPath id="464795009d"><rect x="0" width="145" y="0" height="21"/></clipPath></defs><g transform="matrix(1, 0, 0, 1, 188, 74)"><g clip-path="url(#131bad4137)"><g fill="#ffffff" fill-opacity="1"><g transform="translate(0.657735, 183.051969)"><g><path d="M 58.8125 -140.640625 L 2.296875 -140.640625 L 2.296875 -137.28125 L 20.296875 -137.28125 L 67.390625 2.09375 L 71.15625 2.09375 L 115.9375 -137.28125 L 131.015625 -137.28125 L 131.015625 -140.640625 L 93.546875 -140.640625 L 93.546875 -137.28125 L 111.546875 -137.28125 L 76.8125 -29.09375 L 39.96875 -137.28125 L 58.8125 -137.28125 Z M 58.8125 -140.640625 "/></g></g></g></g></g><g transform="matrix(1, 0, 0, 1, 52, 75)"><g clip-path="url(#e1860c2ef8)"><g fill="#ffffff" fill-opacity="1"><g transform="translate(0.977406, 181.876466)"><g><path d="M 63.09375 -140.40625 L 6.890625 -140.40625 L 6.890625 -137.0625 L 24.859375 -137.0625 L 24.859375 -3.34375 L 6.890625 -3.34375 L 6.890625 0 L 63.09375 0 L 63.09375 -3.34375 L 45.125 -3.34375 L 45.125 -72.921875 L 100.5 -72.921875 L 100.5 -3.34375 L 82.53125 -3.34375 L 82.53125 0 L 138.734375 0 L 138.734375 -3.34375 L 120.765625 -3.34375 L 120.765625 -137.0625 L 138.734375 -137.0625 L 138.734375 -140.40625 L 82.53125 -140.40625 L 82.53125 -137.0625 L 100.5 -137.0625 L 100.5 -76.46875 L 45.125 -76.46875 L 45.125 -137.0625 L 63.09375 -137.0625 Z M 63.09375 -140.40625 "/></g></g></g></g></g><g clip-path="url(#caf6b5e4c9)"><g transform="matrix(1, 0, 0, 1, 37, 169)"><g clip-path="url(#14d0194570)"><g clip-path="url(#2d5210abe0)"><path fill="#000000" d="M 0.5 0.1875 L 312.027344 0.1875 L 312.027344 36.324219 L 0.5 36.324219 Z M 0.5 0.1875 " fill-opacity="1" fill-rule="nonzero"/></g></g></g></g><g transform="matrix(1, 0, 0, 1, 121, 176)"><g clip-path="url(#464795009d)"><g fill="#ffffff" fill-opacity="1"><g transform="translate(1.473005, 16.238792)"><g><path d="M 11.71875 -11.328125 L 11.71875 0 L 9.109375 0 L 9.109375 -4.640625 L 3.96875 -4.640625 L 3.96875 0 L 1.34375 0 L 1.34375 -11.328125 L 3.96875 -11.328125 L 3.96875 -6.859375 L 9.109375 -6.859375 L 9.109375 -11.328125 Z M 11.71875 -11.328125 "/></g></g></g><g fill="#ffffff" fill-opacity="1"><g transform="translate(20.13338, 16.238792)"><g><path d="M 8.796875 -2.421875 L 3.546875 -2.421875 L 2.53125 0 L -0.140625 0 L 4.90625 -11.328125 L 7.484375 -11.328125 L 12.546875 0 L 9.796875 0 Z M 7.96875 -4.421875 L 6.171875 -8.75 L 4.375 -4.421875 Z M 7.96875 -4.421875 "/></g></g></g><g fill="#ffffff" fill-opacity="1"><g transform="translate(38.114606, 16.238792)"><g><path d="M 1.34375 -11.328125 L 3.96875 -11.328125 L 3.96875 -2.140625 L 9.640625 -2.140625 L 9.640625 0 L 1.34375 0 Z M 1.34375 -11.328125 "/></g></g></g><g fill="#ffffff" fill-opacity="1"><g transform="translate(53.476316, 16.238792)"><g><path d="M 1.34375 -11.328125 L 3.96875 -11.328125 L 3.96875 0 L 1.34375 0 Z M 1.34375 -11.328125 "/></g></g></g><g fill="#ffffff" fill-opacity="1"><g transform="translate(64.375137, 16.238792)"><g><path d="M 1.34375 -11.328125 L 3.96875 -11.328125 L 3.96875 -2.140625 L 9.640625 -2.140625 L 9.640625 0 L 1.34375 0 Z M 1.34375 -11.328125 "/></g></g></g><g fill="#ffffff" fill-opacity="1"><g transform="translate(79.736847, 16.238792)"><g><path d="M 8.796875 -2.421875 L 3.546875 -2.421875 L 2.53125 0 L -0.140625 0 L 4.90625 -11.328125 L 7.484375 -11.328125 L 12.546875 0 L 9.796875 0 Z M 7.96875 -4.421875 L 6.171875 -8.75 L 4.375 -4.421875 Z M 7.96875 -4.421875 "/></g></g></g><g fill="#ffffff" fill-opacity="1"><g transform="translate(97.718073, 16.238792)"><g><path d="M 8.984375 -5.84375 L 11.390625 -5.84375 L 11.390625 -1.25 C 10.773438 -0.78125 10.0625 -0.421875 9.25 -0.171875 C 8.4375 0.0664062 7.625 0.1875 6.8125 0.1875 C 5.632812 0.1875 4.578125 -0.0625 3.640625 -0.5625 C 2.703125 -1.0625 1.960938 -1.753906 1.421875 -2.640625 C 0.890625 -3.535156 0.625 -4.539062 0.625 -5.65625 C 0.625 -6.78125 0.890625 -7.785156 1.421875 -8.671875 C 1.960938 -9.566406 2.707031 -10.265625 3.65625 -10.765625 C 4.601562 -11.265625 5.671875 -11.515625 6.859375 -11.515625 C 7.847656 -11.515625 8.742188 -11.347656 9.546875 -11.015625 C 10.359375 -10.679688 11.039062 -10.195312 11.59375 -9.5625 L 9.90625 -8 C 9.101562 -8.851562 8.128906 -9.28125 6.984375 -9.28125 C 6.265625 -9.28125 5.625 -9.128906 5.0625 -8.828125 C 4.5 -8.523438 4.0625 -8.097656 3.75 -7.546875 C 3.4375 -7.003906 3.28125 -6.375 3.28125 -5.65625 C 3.28125 -4.957031 3.4375 -4.332031 3.75 -3.78125 C 4.0625 -3.226562 4.492188 -2.796875 5.046875 -2.484375 C 5.609375 -2.179688 6.242188 -2.03125 6.953125 -2.03125 C 7.710938 -2.03125 8.390625 -2.191406 8.984375 -2.515625 Z M 8.984375 -5.84375 "/></g></g></g><g fill="#ffffff" fill-opacity="1"><g transform="translate(115.780148, 16.238792)"><g><path d="M 1.34375 -11.328125 L 3.96875 -11.328125 L 3.96875 0 L 1.34375 0 Z M 1.34375 -11.328125 "/></g></g></g><g fill="#ffffff" fill-opacity="1"><g transform="translate(126.678968, 16.238792)"><g><path d="M 6.765625 0.1875 C 5.609375 0.1875 4.5625 -0.0625 3.625 -0.5625 C 2.695312 -1.0625 1.960938 -1.753906 1.421875 -2.640625 C 0.890625 -3.535156 0.625 -4.539062 0.625 -5.65625 C 0.625 -6.78125 0.890625 -7.785156 1.421875 -8.671875 C 1.960938 -9.566406 2.695312 -10.265625 3.625 -10.765625 C 4.5625 -11.265625 5.613281 -11.515625 6.78125 -11.515625 C 7.757812 -11.515625 8.644531 -11.34375 9.4375 -11 C 10.226562 -10.65625 10.894531 -10.160156 11.4375 -9.515625 L 9.75 -7.953125 C 8.988281 -8.835938 8.039062 -9.28125 6.90625 -9.28125 C 6.207031 -9.28125 5.582031 -9.125 5.03125 -8.8125 C 4.476562 -8.507812 4.046875 -8.082031 3.734375 -7.53125 C 3.429688 -6.988281 3.28125 -6.363281 3.28125 -5.65625 C 3.28125 -4.957031 3.429688 -4.332031 3.734375 -3.78125 C 4.046875 -3.226562 4.476562 -2.796875 5.03125 -2.484375 C 5.582031 -2.179688 6.207031 -2.03125 6.90625 -2.03125 C 8.039062 -2.03125 8.988281 -2.476562 9.75 -3.375 L 11.4375 -1.828125 C 10.894531 -1.171875 10.222656 -0.671875 9.421875 -0.328125 C 8.628906 0.015625 7.742188 0.1875 6.765625 0.1875 Z M 7.40625 -14.578125 L 10.125 -14.578125 L 7.203125 -12.234375 L 5.21875 -12.234375 Z M 7.40625 -14.578125 "/></g></g></g></g></g><g fill="#ffffff" fill-opacity="1"><g transform="translate(131.934636, 281.935791)"><g><path d="M 11.625 -7.125 L 9.296875 0 L 7.515625 0 L 5.953125 -4.828125 L 4.328125 0 L 2.5625 0 L 0.21875 -7.125 L 1.9375 -7.125 L 3.546875 -2.125 L 5.21875 -7.125 L 6.75 -7.125 L 8.390625 -2.078125 L 10.046875 -7.125 Z M 11.625 -7.125 "/></g></g></g><g fill="#ffffff" fill-opacity="1"><g transform="translate(150.877444, 281.935791)"><g><path d="M 6.359375 -1.328125 L 6.359375 0 L 0.84375 0 L 0.84375 -7.125 L 6.234375 -7.125 L 6.234375 -5.8125 L 2.484375 -5.8125 L 2.484375 -4.265625 L 5.796875 -4.265625 L 5.796875 -2.96875 L 2.484375 -2.96875 L 2.484375 -1.328125 Z M 6.359375 -1.328125 "/></g></g></g><g fill="#ffffff" fill-opacity="1"><g transform="translate(164.809916, 281.935791)"><g><path d="M 0.84375 -7.125 L 4.078125 -7.125 C 4.859375 -7.125 5.546875 -6.976562 6.140625 -6.6875 C 6.734375 -6.394531 7.191406 -5.976562 7.515625 -5.4375 C 7.847656 -4.90625 8.015625 -4.28125 8.015625 -3.5625 C 8.015625 -2.851562 7.847656 -2.226562 7.515625 -1.6875 C 7.191406 -1.15625 6.734375 -0.738281 6.140625 -0.4375 C 5.546875 -0.144531 4.859375 0 4.078125 0 L 0.84375 0 Z M 4 -1.359375 C 4.71875 -1.359375 5.285156 -1.554688 5.703125 -1.953125 C 6.128906 -2.347656 6.34375 -2.882812 6.34375 -3.5625 C 6.34375 -4.238281 6.128906 -4.773438 5.703125 -5.171875 C 5.285156 -5.578125 4.71875 -5.78125 4 -5.78125 L 2.5 -5.78125 L 2.5 -1.359375 Z M 4 -1.359375 "/></g></g></g><g fill="#ffffff" fill-opacity="1"><g transform="translate(180.320848, 281.935791)"><g><path d="M 0.84375 -7.125 L 4.078125 -7.125 C 4.859375 -7.125 5.546875 -6.976562 6.140625 -6.6875 C 6.734375 -6.394531 7.191406 -5.976562 7.515625 -5.4375 C 7.847656 -4.90625 8.015625 -4.28125 8.015625 -3.5625 C 8.015625 -2.851562 7.847656 -2.226562 7.515625 -1.6875 C 7.191406 -1.15625 6.734375 -0.738281 6.140625 -0.4375 C 5.546875 -0.144531 4.859375 0 4.078125 0 L 0.84375 0 Z M 4 -1.359375 C 4.71875 -1.359375 5.285156 -1.554688 5.703125 -1.953125 C 6.128906 -2.347656 6.34375 -2.882812 6.34375 -3.5625 C 6.34375 -4.238281 6.128906 -4.773438 5.703125 -5.171875 C 5.285156 -5.578125 4.71875 -5.78125 4 -5.78125 L 2.5 -5.78125 L 2.5 -1.359375 Z M 4 -1.359375 "/></g></g></g><g fill="#ffffff" fill-opacity="1"><g transform="translate(195.83178, 281.935791)"><g><path d="M 0.84375 -7.125 L 2.5 -7.125 L 2.5 0 L 0.84375 0 Z M 0.84375 -7.125 "/></g></g></g><g fill="#ffffff" fill-opacity="1"><g transform="translate(206.271263, 281.935791)"><g><path d="M 7.390625 -7.125 L 7.390625 0 L 6.03125 0 L 2.46875 -4.328125 L 2.46875 0 L 0.84375 0 L 0.84375 -7.125 L 2.203125 -7.125 L 5.75 -2.796875 L 5.75 -7.125 Z M 7.390625 -7.125 "/></g></g></g><g fill="#ffffff" fill-opacity="1"><g transform="translate(221.598884, 281.935791)"><g><path d="M 5.671875 -3.671875 L 7.171875 -3.671875 L 7.171875 -0.78125 C 6.785156 -0.488281 6.335938 -0.265625 5.828125 -0.109375 C 5.316406 0.046875 4.800781 0.125 4.28125 0.125 C 3.539062 0.125 2.875 -0.03125 2.28125 -0.34375 C 1.695312 -0.664062 1.234375 -1.101562 0.890625 -1.65625 C 0.554688 -2.21875 0.390625 -2.851562 0.390625 -3.5625 C 0.390625 -4.269531 0.554688 -4.90625 0.890625 -5.46875 C 1.234375 -6.03125 1.703125 -6.46875 2.296875 -6.78125 C 2.898438 -7.09375 3.570312 -7.25 4.3125 -7.25 C 4.9375 -7.25 5.503906 -7.144531 6.015625 -6.9375 C 6.523438 -6.726562 6.953125 -6.421875 7.296875 -6.015625 L 6.25 -5.046875 C 5.738281 -5.578125 5.125 -5.84375 4.40625 -5.84375 C 3.945312 -5.84375 3.539062 -5.75 3.1875 -5.5625 C 2.832031 -5.375 2.554688 -5.101562 2.359375 -4.75 C 2.160156 -4.40625 2.0625 -4.007812 2.0625 -3.5625 C 2.0625 -3.125 2.160156 -2.726562 2.359375 -2.375 C 2.554688 -2.03125 2.828125 -1.757812 3.171875 -1.5625 C 3.523438 -1.375 3.925781 -1.28125 4.375 -1.28125 C 4.851562 -1.28125 5.285156 -1.382812 5.671875 -1.59375 Z M 5.671875 -3.671875 "/></g></g></g><g fill="#ffffff" fill-opacity="1"><g transform="translate(236.549719, 281.935791)"><g><path d="M 3.1875 0.125 C 2.625 0.125 2.078125 0.046875 1.546875 -0.109375 C 1.023438 -0.265625 0.601562 -0.460938 0.28125 -0.703125 L 0.84375 -1.953125 C 1.144531 -1.722656 1.503906 -1.539062 1.921875 -1.40625 C 2.347656 -1.269531 2.773438 -1.203125 3.203125 -1.203125 C 3.671875 -1.203125 4.015625 -1.269531 4.234375 -1.40625 C 4.460938 -1.550781 4.578125 -1.738281 4.578125 -1.96875 C 4.578125 -2.132812 4.507812 -2.273438 4.375 -2.390625 C 4.238281 -2.503906 4.066406 -2.59375 3.859375 -2.65625 C 3.660156 -2.726562 3.382812 -2.804688 3.03125 -2.890625 C 2.476562 -3.015625 2.03125 -3.140625 1.6875 -3.265625 C 1.34375 -3.398438 1.046875 -3.609375 0.796875 -3.890625 C 0.546875 -4.171875 0.421875 -4.550781 0.421875 -5.03125 C 0.421875 -5.445312 0.53125 -5.820312 0.75 -6.15625 C 0.976562 -6.488281 1.316406 -6.753906 1.765625 -6.953125 C 2.222656 -7.148438 2.78125 -7.25 3.4375 -7.25 C 3.882812 -7.25 4.328125 -7.191406 4.765625 -7.078125 C 5.203125 -6.972656 5.582031 -6.820312 5.90625 -6.625 L 5.40625 -5.375 C 4.738281 -5.738281 4.078125 -5.921875 3.421875 -5.921875 C 2.960938 -5.921875 2.617188 -5.847656 2.390625 -5.703125 C 2.171875 -5.554688 2.0625 -5.359375 2.0625 -5.109375 C 2.0625 -4.867188 2.1875 -4.6875 2.4375 -4.5625 C 2.695312 -4.445312 3.085938 -4.332031 3.609375 -4.21875 C 4.160156 -4.09375 4.609375 -3.960938 4.953125 -3.828125 C 5.296875 -3.703125 5.59375 -3.5 5.84375 -3.21875 C 6.09375 -2.9375 6.21875 -2.5625 6.21875 -2.09375 C 6.21875 -1.6875 6.101562 -1.3125 5.875 -0.96875 C 5.644531 -0.632812 5.300781 -0.367188 4.84375 -0.171875 C 4.394531 0.0234375 3.84375 0.125 3.1875 0.125 Z M 3.1875 0.125 "/></g></g></g></svg>
