<svg version="1.1" id="Layer_1" xmlns="http://www.w3.org/2000/svg" xmlns:xlink="http://www.w3.org/1999/xlink" x="0px" y="0px"
	 width="100%" viewBox="0 0 1024 1024" enable-background="new 0 0 1024 1024" xml:space="preserve">
<path fill="#000000" opacity="1.000000" stroke="none" 
	d="
M712.998779,245.927979 
	C718.163513,245.944351 722.828613,245.978195 727.493713,245.970642 
	C730.183472,245.966278 731.415527,247.211349 731.367493,249.947006 
	C731.125916,263.699860 733.233215,261.178040 721.206055,261.280457 
	C703.545471,261.430878 685.882690,261.306732 668.221008,261.346588 
	C666.446594,261.350586 664.552429,260.844025 662.244873,262.547546 
	C672.543274,292.739166 682.935791,323.129547 693.274475,353.538208 
	C703.567627,383.813110 713.806763,414.106384 724.016846,444.236053 
	C723.415588,445.569855 722.400269,445.601776 721.390747,445.598511 
	C698.567505,445.524841 675.743774,445.357544 652.921387,445.462372 
	C649.458679,445.478241 647.589905,444.236298 646.588745,441.238647 
	C635.506287,408.055115 624.521179,374.838867 613.353027,341.684235 
	C604.988220,316.851501 596.326660,292.118774 587.970337,267.283234 
	C586.563904,263.103149 584.655823,261.195557 579.867188,261.220032 
	C540.878906,261.419128 501.889252,261.330872 462.899994,261.337585 
	C456.300293,261.338745 456.208466,261.432922 456.209198,268.041565 
	C456.215454,324.859192 456.226440,381.676849 456.238708,438.494476 
	C456.240204,445.382111 456.247620,445.362488 449.118805,445.358948 
	C427.291931,445.348083 405.464264,445.255188 383.638947,445.438721 
	C379.435760,445.474091 378.495911,444.284698 378.509369,440.064819 
	C378.694427,382.081390 378.617554,324.097168 378.719208,266.113373 
	C378.725891,262.308563 377.316132,261.261322 373.728180,261.283997 
	C354.900787,261.403015 336.072144,261.370331 317.244293,261.292145 
	C315.082336,261.283173 311.873871,262.364868 311.188721,259.375458 
	C310.313812,255.557877 309.856110,251.364578 311.552948,247.655869 
	C312.362366,245.886719 314.897949,246.677597 316.668427,246.674438 
	C337.995819,246.636261 359.323334,246.649216 380.650787,246.649673 
	C423.972198,246.650604 467.303619,247.246338 510.612701,246.515945 
	C577.911133,245.380981 645.204956,246.317291 712.998779,245.927979 
z"/>
<path fill="#000000" opacity="1.000000" stroke="none" 
	d="
M173.349380,290.000122 
	C173.346069,339.970673 173.345627,389.441193 173.335266,438.911743 
	C173.333908,445.371185 173.310196,445.335602 166.827301,445.352814 
	C144.177948,445.412872 121.528412,445.464020 98.879723,445.626190 
	C96.332169,445.644440 95.339775,445.075836 95.348587,442.308807 
	C95.504028,393.509552 95.569466,344.710052 95.647041,295.910583 
	C95.662666,286.083130 95.490906,276.251862 95.724541,266.429962 
	C95.818703,262.471375 94.471931,261.237976 90.566498,261.270752 
	C72.078812,261.425903 53.587151,261.192780 35.101444,261.438904 
	C30.203365,261.504120 27.810081,260.256012 28.637257,255.056976 
	C28.792374,254.082016 28.768295,253.048355 28.644909,252.064606 
	C28.137896,248.022125 29.685719,246.449493 33.916046,246.572601 
	C42.903042,246.834137 51.902996,246.649109 60.897636,246.649841 
	C118.196846,246.654465 175.496078,246.647400 232.795227,246.708969 
	C235.160614,246.711517 238.561661,245.517441 239.634918,248.174820 
	C241.119598,251.850800 240.857941,256.107452 239.796051,259.959229 
	C239.202057,262.113831 236.640167,261.287354 234.921326,261.292297 
	C216.599060,261.345093 198.276581,261.323517 179.954163,261.330902 
	C173.371002,261.333557 173.362457,261.344025 173.352539,268.013245 
	C173.341904,275.175537 173.349518,282.337799 173.349380,290.000122 
z"/>
<path fill="#000000" opacity="1.000000" stroke="none" 
	d="
M456.240875,722.000000 
	C456.237213,732.664368 456.395172,742.832642 456.153229,752.991333 
	C456.051361,757.269714 457.316071,758.801636 461.801422,758.748535 
	C480.461243,758.527710 499.126709,758.789856 517.786743,758.576477 
	C522.231384,758.525574 523.933289,759.967834 523.371216,764.305115 
	C523.201294,765.616150 523.212891,766.983154 523.367676,768.297913 
	C523.833740,772.257751 522.123291,773.418396 518.228394,773.412659 
	C450.910248,773.313721 383.591858,773.302734 316.273743,773.413025 
	C311.756012,773.420471 310.588531,771.736877 310.667938,767.522949 
	C310.834930,758.663025 310.652252,758.654419 319.683533,758.652649 
	C337.179626,758.649170 354.678436,758.481079 372.170074,758.760559 
	C377.165527,758.840332 378.775513,757.460327 378.755920,752.328674 
	C378.536987,695.011719 378.538483,637.693848 378.492279,580.376282 
	C378.492035,580.057983 378.657990,579.739563 378.760101,579.371521 
	C380.153992,578.072327 381.901855,578.667969 383.497681,578.665649 
	C405.825958,578.633484 428.156281,578.802979 450.481140,578.524780 
	C455.337921,578.464294 456.326935,580.137451 456.315399,584.531006 
	C456.195343,630.187073 456.241180,675.843628 456.240875,722.000000 
z"/>
<path fill="#000000" opacity="1.000000" stroke="none" 
	d="
M28.692722,770.366455 
	C28.853632,766.335144 28.183989,762.677429 29.223070,758.650879 
	C34.128841,758.650879 38.916603,758.651123 43.704365,758.650879 
	C58.528534,758.650085 73.352699,758.650208 88.176872,758.647644 
	C95.631134,758.646301 95.647995,758.643921 95.648621,751.357910 
	C95.653397,696.225342 95.651031,641.092712 95.650887,585.960144 
	C95.650879,583.808716 95.650887,581.657288 95.650887,579.788330 
	C97.567665,578.038879 99.490150,578.681335 101.236549,578.677673 
	C123.389427,578.631775 145.544693,578.814819 167.693649,578.516663 
	C172.591049,578.450745 173.434509,580.146851 173.425507,584.491760 
	C173.309830,640.290344 173.348526,696.089233 173.351929,751.888062 
	C173.352341,758.646790 173.362686,758.651001 180.249496,758.653625 
	C198.404938,758.660522 216.561752,758.784790 234.714828,758.580322 
	C239.105804,758.530945 240.937439,759.920654 240.356796,764.289734 
	C240.248032,765.108032 240.345871,765.953308 240.342545,766.786133 
	C240.315887,773.436646 240.315430,773.360229 233.907700,773.361755 
	C167.283081,773.377136 100.658463,773.427856 34.033852,773.412292 
	C31.977968,773.411804 29.018486,774.610168 28.692722,770.366455 
z"/>
<path fill="#000000" opacity="1.000000" stroke="none" 
	d="
M760.272705,778.308716 
	C756.579102,766.472412 752.942810,754.945618 749.055664,743.503967 
	C739.449402,715.227844 729.680664,687.007019 720.067383,658.733337 
	C711.326294,633.024902 702.700989,607.277100 694.048218,581.538696 
	C693.848633,580.945068 693.929443,580.257202 693.891357,579.766357 
	C694.982971,578.230591 696.432800,578.658203 697.682373,578.656921 
	C720.166504,578.633545 742.650757,578.697876 765.134521,578.606750 
	C768.646118,578.592529 770.310364,579.698059 771.495300,583.261841 
	C779.438232,607.149292 787.691589,630.933533 795.873901,654.741089 
	C796.129456,655.484680 796.707214,656.117554 797.364807,657.170532 
	C801.012390,653.291687 801.822388,648.454956 803.248169,644.059021 
	C809.948914,623.398071 816.388855,602.652527 822.904175,581.931641 
	C823.517212,579.981750 824.643433,578.705261 826.786804,578.692444 
	C831.747070,578.662781 836.707642,578.682983 842.183594,578.682983 
	C841.519409,584.812439 839.305420,589.989319 837.655945,595.260620 
	C829.438171,621.521545 821.149170,647.761292 812.693054,673.946289 
	C804.951660,697.918152 796.912354,721.793640 789.110291,745.746094 
	C785.672058,756.301697 782.339172,766.897949 779.286743,777.569580 
	C778.220276,781.298157 776.494690,782.914062 772.604431,782.434509 
	C770.476868,782.172241 768.251526,782.223022 766.127136,782.528381 
	C762.877441,782.995605 761.083313,781.631287 760.272705,778.308716 
z"/>
<path fill="#000000" opacity="1.000000" stroke="none" 
	d="
M907.873901,318.083984 
	C913.466248,300.635529 918.791199,283.519531 924.463806,266.519531 
	C925.952942,262.056671 924.346436,261.289246 920.476379,261.302917 
	C902.319031,261.367065 884.161316,261.328979 866.003723,261.316223 
	C859.594116,261.311707 859.713379,261.295319 859.611633,254.744476 
	C859.458435,244.877960 859.416382,245.925674 868.584717,245.920074 
	C910.563782,245.894485 952.542786,245.889221 994.521790,245.937012 
	C996.861389,245.939682 1000.314514,244.901352 1000.964478,248.077530 
	C1001.779419,252.060410 1002.197388,256.408417 1000.557068,260.326935 
	C999.880920,261.942108 997.541748,261.297516 995.927856,261.301361 
	C980.935486,261.336945 965.940979,261.455872 950.951477,261.245117 
	C946.307556,261.179871 944.144897,262.226227 942.745667,267.337555 
	C938.937927,281.246796 934.025391,294.851807 929.617737,308.598938 
	C917.050476,347.795288 904.544861,387.011475 891.934509,426.193939 
	C890.315979,431.222992 888.352051,436.131531 887.215454,441.320099 
	C886.825623,443.099670 885.915710,445.053131 883.816101,445.211761 
	C879.014160,445.574585 874.179993,445.878143 869.376587,445.707672 
	C866.767944,445.615173 866.974060,443.218323 867.670044,441.461426 
	C875.747986,421.071014 881.277588,399.835114 888.381592,379.118286 
	C895.264465,359.046661 901.318359,338.690826 907.873901,318.083984 
z"/>
<path fill="#000000" opacity="1.000000" stroke="none" 
	d="
M279.238922,490.208557 
	C279.308258,493.680450 279.569489,496.698914 279.292908,499.667297 
	C278.908783,503.789490 280.767212,504.719299 284.537201,504.727509 
	C296.786163,504.754242 296.784393,504.877533 296.658203,492.433594 
	C296.643311,490.966187 296.656158,489.498474 296.656158,488.177856 
	C297.294220,487.890198 297.592682,487.637115 297.889709,487.638824 
	C310.769531,487.712463 308.142273,486.716003 308.304779,497.314301 
	C308.475342,508.436951 308.342926,519.564270 308.342926,530.879578 
	C304.314087,531.705261 300.787628,531.718140 297.181610,530.859436 
	C296.185272,526.942261 296.869019,523.096375 296.604187,519.305420 
	C296.487305,517.632507 296.668396,515.465881 294.800171,515.024170 
	C290.106812,513.914429 285.295166,514.758789 280.548737,515.010559 
	C279.314636,515.075989 279.388702,516.843384 279.371674,518.001282 
	C279.339844,520.164978 279.350830,522.329285 279.346985,524.493347 
	C279.334564,531.458984 279.329895,531.340027 272.044067,531.657593 
	C269.169464,531.782959 267.625793,531.195374 267.642181,527.978455 
	C267.709808,514.696106 267.670502,501.413208 267.670502,487.536285 
	C271.681580,488.596649 275.962372,485.457672 279.238922,490.208557 
z"/>
<path fill="#000000" opacity="1.000000" stroke="none" 
	d="
M567.767883,528.568176 
	C565.290161,532.151001 559.686035,532.880371 554.469299,530.268860 
	C557.635071,523.053528 560.809692,515.795227 564.003845,508.545502 
	C566.479919,502.925568 568.970093,497.311798 571.475159,491.704742 
	C572.491760,489.429138 573.317688,486.931976 576.716919,487.595734 
	C580.155945,488.267242 584.342163,485.982086 586.489502,491.175446 
	C590.477966,500.821594 594.957947,510.264923 599.257385,519.781799 
	C600.415283,522.344727 601.600891,524.898743 602.882202,527.401306 
	C604.143311,529.864197 603.609680,531.220154 600.732910,531.366882 
	C595.698181,531.623779 590.138367,532.993530 589.053467,525.385864 
	C588.853882,523.985901 587.572510,523.166504 586.103455,523.091003 
	C581.615723,522.860107 577.124023,522.525208 572.635498,522.548645 
	C569.079102,522.567200 569.101929,525.992859 567.767883,528.568176 
M575.704712,511.539490 
	C577.943726,512.249207 580.098633,511.992401 582.543396,511.122314 
	C581.750549,508.430634 582.027283,505.555115 579.128418,503.914917 
	C577.268372,506.141174 575.724182,508.209229 575.704712,511.539490 
z"/>
<path fill="#000000" opacity="1.000000" stroke="none" 
	d="
M753.128296,497.995972 
	C748.529663,499.651855 745.830261,502.201202 745.581726,507.106964 
	C745.300110,512.665649 745.465942,518.119873 751.309448,520.615662 
	C755.769958,522.520813 760.853516,523.115356 764.899048,519.408569 
	C769.922119,514.806152 771.662354,520.512634 773.922668,522.452698 
	C777.029724,525.119446 773.432739,526.800049 771.590637,527.991455 
	C762.775635,533.692810 753.486755,534.190918 744.227783,529.294678 
	C736.085510,524.989014 732.643677,517.565674 732.772949,508.684357 
	C732.868042,502.149261 735.298645,496.142029 740.808838,492.277435 
	C745.575073,488.934570 750.343628,485.837250 753.408447,480.656525 
	C757.208435,474.233185 763.201233,475.265930 769.690735,476.185883 
	C767.742004,480.603119 763.200989,481.707825 760.167786,485.427856 
	C765.160645,488.871979 772.174072,489.223663 775.037048,495.353729 
	C774.080994,497.623108 771.807434,498.612854 770.268250,500.296082 
	C768.542603,502.183075 766.847473,501.954742 765.105408,500.393768 
	C761.711243,497.352478 757.807922,496.671722 753.128296,497.995972 
z"/>
<path fill="#000000" opacity="1.000000" stroke="none" 
	d="
M627.615845,522.006348 
	C626.345520,518.393066 624.907410,515.212280 624.612854,511.668915 
	C623.775208,501.592896 627.804016,493.882355 636.668152,489.444702 
	C646.119507,484.713104 655.681213,485.398743 664.495789,491.641479 
	C666.226990,492.867554 668.571106,494.614044 666.196960,496.791992 
	C664.059265,498.753021 662.475037,503.138611 658.165649,500.364349 
	C655.743164,498.804840 653.244995,497.595093 650.348511,497.362366 
	C644.662292,496.905457 640.823669,499.199219 638.034912,504.023224 
	C634.899353,509.447235 636.783203,513.939453 640.118896,518.254761 
	C643.526855,522.663696 648.399719,521.705505 653.005127,521.481750 
	C654.571716,521.405579 655.222290,520.146973 655.514099,518.766724 
	C655.650208,518.122864 655.604614,517.440369 655.639709,516.775330 
	C656.117126,507.716919 656.117004,507.716919 666.259705,509.102478 
	C666.259705,514.580688 666.312073,520.178528 666.234192,525.774536 
	C666.202515,528.054749 664.166077,528.607605 662.553528,529.388794 
	C649.839844,535.547913 637.235718,532.961914 627.615845,522.006348 
z"/>
<path fill="#000000" opacity="1.000000" stroke="none" 
	d="
M336.172180,520.312012 
	C340.592499,510.419159 344.970947,500.926849 349.046814,491.306366 
	C350.214935,488.549103 351.768311,487.351379 354.658569,487.631714 
	C357.933502,487.949402 361.658356,486.478119 363.590302,490.974213 
	C368.036865,501.322266 372.825714,511.522980 377.295044,521.861572 
	C378.519958,524.695068 380.786499,527.127991 380.957733,530.747070 
	C377.976440,532.282959 374.750366,531.290466 371.724915,531.556763 
	C367.478363,531.930542 367.807587,527.815125 366.561798,525.364075 
	C365.693634,523.656067 364.293152,522.846191 362.600159,522.758850 
	C358.452454,522.545105 354.293976,522.525330 350.139252,522.470093 
	C348.225494,522.444641 347.221008,523.674255 346.329773,525.214355 
	C342.270050,532.230225 340.519318,532.880737 332.072266,530.568420 
	C332.135315,526.787476 335.214783,524.147583 336.172180,520.312012 
M358.719482,507.161987 
	C358.012482,505.566437 357.305481,503.970886 356.329681,501.768677 
	C354.569519,505.316620 353.140991,508.302582 352.723145,511.685974 
	C359.044891,513.358643 359.963165,512.749939 358.719482,507.161987 
z"/>
<path fill="#000000" opacity="1.000000" stroke="none" 
	d="
M305.322998,838.442261 
	C309.873901,842.389709 308.924561,848.520935 312.402649,852.654724 
	C313.743683,849.043640 315.423035,845.290344 316.495911,841.370972 
	C317.251373,838.611328 319.021515,838.113464 321.279297,838.034668 
	C323.763611,837.947937 325.347412,839.285889 326.089874,841.581421 
	C327.199249,845.011230 328.230438,848.466370 329.530121,852.671936 
	C332.540771,848.936340 333.582458,845.134888 334.505249,841.469177 
	C335.541779,837.351746 338.303375,837.724121 341.065552,838.378052 
	C344.658173,839.228638 342.670258,841.604919 342.069366,843.500122 
	C340.176392,849.470398 338.409271,855.486450 336.298462,861.379150 
	C335.344299,864.042969 334.566376,866.876953 330.328674,866.816467 
	C326.010529,866.754700 325.257629,864.057434 324.114044,861.096619 
	C323.205780,858.745117 323.438843,855.795288 320.306213,853.780029 
	C319.174042,857.159851 318.027252,860.178955 317.162781,863.276794 
	C316.282745,866.430542 314.136139,866.587219 311.395691,866.531982 
	C308.795044,866.479492 307.447296,866.080200 306.362885,863.177063 
	C303.991425,856.828186 302.746460,850.069763 299.436096,844.045288 
	C298.693176,842.693298 298.807343,840.870300 298.550079,839.396667 
	C300.692230,837.560913 302.809143,837.880920 305.322998,838.442261 
z"/>
<path fill="#000000" opacity="1.000000" stroke="none" 
	d="
M524.848877,531.380432 
	C518.226440,531.502319 512.081726,531.560242 505.942810,531.781738 
	C503.637665,531.864990 502.553772,531.125488 502.561066,528.710327 
	C502.602264,515.112671 502.580933,501.514771 502.580933,487.893524 
	C505.751190,486.865234 508.726410,487.753174 511.675629,487.744843 
	C514.748962,487.736176 514.294556,490.179535 514.306824,492.087616 
	C514.358154,500.065674 514.515930,508.049805 514.266602,516.020203 
	C514.144287,519.929626 515.724854,521.552307 519.396057,521.577576 
	C523.384216,521.604980 527.385620,521.799133 531.357727,521.548645 
	C536.007629,521.255432 535.259521,524.380920 535.355408,527.155151 
	C535.453674,529.999634 535.060669,532.171753 531.301636,531.587280 
	C529.347290,531.283386 527.322083,531.435486 524.848877,531.380432 
z"/>
<path fill="#000000" opacity="1.000000" stroke="none" 
	d="
M422.424042,521.657593 
	C426.208954,521.667725 429.552185,521.866760 432.864014,521.628662 
	C436.978180,521.332886 437.373322,523.633667 437.404358,526.887939 
	C437.435699,530.177979 436.636841,531.653015 432.904022,531.543457 
	C423.641113,531.271606 414.364868,531.454163 404.837830,531.454163 
	C404.837830,516.898499 404.837830,502.653564 404.837830,488.073364 
	C407.851746,487.104431 410.822540,487.631409 413.733429,487.741272 
	C416.767883,487.855774 416.294220,490.288147 416.307861,492.190704 
	C416.363922,500.014221 416.543762,507.845764 416.261536,515.659302 
	C416.104614,520.004272 417.721252,521.883362 422.424042,521.657593 
z"/>
<path fill="#000000" opacity="1.000000" stroke="none" 
	d="
M588.106689,854.505737 
	C587.186157,853.368286 586.488831,853.285522 586.420105,854.607483 
	C586.290955,857.092712 586.252319,859.592834 586.367920,862.077881 
	C586.505554,865.038757 585.651978,866.848206 582.282471,866.880554 
	C578.920776,866.912781 578.629578,864.896057 578.654053,862.296936 
	C578.713501,855.986084 578.625732,849.673889 578.660217,843.362610 
	C578.671509,841.291382 578.058472,838.881714 581.006897,838.040222 
	C583.797791,837.243774 585.922668,838.325378 587.568420,840.439331 
	C590.097778,843.688171 592.355347,847.161438 595.882568,850.228638 
	C597.348083,847.301636 596.520752,844.502747 596.645874,841.859314 
	C596.768799,839.262451 597.787354,837.599915 600.482727,837.800415 
	C602.737732,837.968262 605.329712,838.082397 605.316772,841.491516 
	C605.286011,849.592102 605.306885,857.692932 605.306885,865.784851 
	C600.721558,867.271851 597.552307,866.459900 594.992126,862.688721 
	C593.055359,859.835815 590.554688,857.365662 588.106689,854.505737 
z"/>
<path fill="#000000" opacity="1.000000" stroke="none" 
	d="
M492.628479,838.125610 
	C494.897430,838.336243 496.722809,838.458069 498.532013,838.700745 
	C505.960754,839.697083 511.293365,845.975769 510.859863,853.168457 
	C510.378052,861.162537 505.009003,866.229980 496.957947,866.383179 
	C493.306244,866.452698 489.650482,866.577087 486.009369,866.848633 
	C483.125610,867.063660 481.609192,866.128235 481.617218,863.017883 
	C481.635681,855.869080 481.551117,848.719666 481.460083,841.571167 
	C481.427002,838.972168 482.820160,838.016418 485.194519,838.033020 
	C487.522217,838.049255 489.849854,838.072388 492.628479,838.125610 
M489.348846,851.662109 
	C489.357513,859.513611 491.888580,861.784546 497.773743,858.982178 
	C501.033386,857.430115 502.831360,854.755920 501.970459,850.933838 
	C501.102020,847.078125 497.320862,845.029968 492.672668,845.363525 
	C488.765747,845.643860 489.466309,848.369690 489.348846,851.662109 
z"/>
<path fill="#000000" opacity="1.000000" stroke="none" 
	d="
M431.916779,838.034668 
	C435.020447,838.260437 437.691101,838.356873 440.321747,838.733032 
	C446.055389,839.552856 450.554840,842.436646 451.982727,848.174072 
	C453.455750,854.093018 452.508636,859.796326 447.403595,864.043701 
	C445.972870,865.234070 444.361969,866.222717 442.472626,866.245972 
	C436.350342,866.321533 430.226593,866.274170 423.571442,866.274170 
	C423.571442,857.623596 423.548279,849.174683 423.590057,840.726196 
	C423.598907,838.935181 424.680939,838.002563 426.469269,837.985596 
	C428.134430,837.969788 429.800140,838.014221 431.916779,838.034668 
M434.502747,845.380798 
	C433.331207,845.466980 431.772583,845.489136 431.684296,846.864868 
	C431.451233,850.497009 431.519775,854.152466 431.597198,857.795959 
	C431.608032,858.304749 432.246033,858.960205 432.760712,859.272888 
	C436.936584,861.809509 443.293915,858.514282 443.760803,853.612427 
	C444.292511,848.030029 442.162354,845.961426 434.502747,845.380798 
z"/>
<path fill="#000000" opacity="1.000000" stroke="none" 
	d="
M390.082611,859.509644 
	C394.090057,859.164185 394.551819,861.357422 394.292450,864.230042 
	C394.017151,867.279175 391.980133,866.696472 389.911377,866.668823 
	C385.429565,866.608948 380.943115,866.785645 376.460632,866.929382 
	C373.245331,867.032410 371.532288,865.930481 371.611969,862.331360 
	C371.762939,855.511230 371.652954,848.683472 371.550568,841.860413 
	C371.513855,839.411560 372.411041,838.026611 374.961578,838.032288 
	C380.120483,838.043701 385.279755,838.048950 390.437958,838.122925 
	C392.995697,838.159607 394.390411,839.287964 394.315765,842.124573 
	C394.234222,845.222839 392.354218,845.447693 389.968964,845.526978 
	C386.938477,845.627563 383.758209,844.594666 380.573029,846.374939 
	C382.206421,849.991028 385.226562,848.202698 387.491119,848.648254 
	C389.181702,848.980896 391.271606,848.146973 392.146973,850.528137 
	C393.238708,853.497864 391.692352,855.195923 388.263367,855.525085 
	C385.619202,855.778870 380.731018,853.553772 380.855774,857.487488 
	C380.992004,861.782043 385.971283,858.869019 388.725189,859.554260 
	C389.032623,859.630737 389.386047,859.522339 390.082611,859.509644 
z"/>
<path fill="#000000" opacity="1.000000" stroke="none" 
	d="
M694.662109,517.990173 
	C694.663940,508.699707 694.734680,499.906036 694.630798,491.114441 
	C694.595459,488.123596 696.103210,487.126892 698.631348,487.696472 
	C701.280518,488.293335 705.997925,485.475098 706.148376,490.575653 
	C706.543274,503.961365 706.281677,517.366455 706.281677,530.422546 
	C705.462891,530.940063 705.199524,531.245056 704.914795,531.266418 
	C694.673035,532.035767 694.672729,532.032043 694.662109,517.990173 
z"/>
<path fill="#000000" opacity="1.000000" stroke="none" 
	d="
M461.666809,523.881470 
	C461.665314,511.774231 461.665314,500.148071 461.665314,488.400879 
	C462.549591,488.115082 463.140442,487.790375 463.751434,487.746582 
	C473.345703,487.058868 473.347687,487.067200 473.348938,496.717865 
	C473.350403,508.153503 473.349243,519.589111 473.349243,530.943420 
	C461.747467,532.602234 461.677643,532.560608 461.666809,523.881470 
z"/>
<path fill="#000000" opacity="1.000000" stroke="none" 
	d="
M650.859497,837.679688 
	C654.006531,837.794312 656.525574,838.712036 658.807007,840.042908 
	C660.615784,841.098206 662.792175,842.440491 661.001709,845.129639 
	C659.638672,847.176880 658.260803,848.317261 655.291016,846.954712 
	C648.966797,844.053345 646.117004,845.085388 643.453003,849.738098 
	C641.701660,852.796875 642.790894,855.157288 644.694458,857.429993 
	C646.924866,860.092712 650.003113,860.135376 652.939026,859.311035 
	C655.208130,858.673767 654.613220,856.325928 654.628967,854.577515 
	C654.649231,852.335754 655.074890,850.624268 657.815735,850.567932 
	C660.773132,850.507263 661.255737,852.255737 661.377502,854.747803 
	C661.890503,865.246033 656.402100,869.717224 646.072083,867.071716 
	C637.916870,864.983154 633.557007,858.666260 634.544922,850.370544 
	C635.419983,843.022278 641.514099,838.151367 650.859497,837.679688 
z"/>
<path fill="#000000" opacity="1.000000" stroke="none" 
	d="
M696.079285,855.602722 
	C690.576965,851.014709 689.332886,846.946167 691.814697,842.622192 
	C694.111145,838.621277 701.321106,836.380981 707.035400,838.315979 
	C709.538391,839.163513 714.186584,838.807068 711.889771,844.094482 
	C710.226379,847.923645 707.606384,846.314087 705.287415,845.328918 
	C702.469849,844.131897 700.266663,843.804749 699.112122,847.771729 
	C702.384216,848.782471 705.532776,849.681458 708.629822,850.732300 
	C711.745300,851.789429 713.473999,853.768005 713.470642,857.361572 
	C713.467224,861.104736 713.021118,864.471313 709.129150,866.000916 
	C703.812256,868.090576 698.352844,867.810974 693.062256,865.925659 
	C689.524048,864.664734 689.550049,863.519348 692.639038,858.044373 
	C696.378601,858.354858 699.656555,861.875183 704.257507,859.780151 
	C702.205505,856.808594 699.791260,855.383240 696.079285,855.602722 
z"/>
<path fill="#000000" opacity="1.000000" stroke="none" 
	d="
M539.639282,840.431702 
	C540.946838,836.825195 543.652466,838.339722 545.662781,838.581421 
	C547.938416,838.855042 547.302673,841.146790 547.315308,842.691956 
	C547.377930,850.325195 547.343811,857.959290 547.343811,865.437805 
	C540.755432,867.979675 539.691528,867.290955 539.658813,860.770752 
	C539.625366,854.115723 539.636658,847.460449 539.639282,840.431702 
z"/>
</svg>